<svg width="100" height="22" xmlns="http://www.w3.org/2000/svg">
  <g fill="#1A48A3" fill-rule="evenodd">
    <path d="M87.752 18.045h4.962l2.579-2.589V6.718l-2.58-2.59h-4.96l-2.58 2.59v8.738l2.58 2.59zM93.967 22H86.49a1.105 1.105 0 0 1-.678-.282l-.011-.011-4.262-4.279a1.092 1.092 0 0 1-.32-.776V5.522c0-.293.114-.569.32-.776l4.273-4.29c.13-.117.354-.26.678-.281h.019l6.678-.01c.036 0 .072.003.107.009h.684c.324.021.548.165.678.282l.011.012 4.262 4.278c.206.207.32.483.32.776v11.13c0 .294-.114.57-.32.776l-4.273 4.29c-.13.117-.354.261-.678.281l-.01.001zM77.534 22l-8.893-.009a1.096 1.096 0 0 1-.68-.281l-.012-.012-4.274-4.277a1.09 1.09 0 0 1-.322-.776V.764c0-.33.269-.599.598-.599h10.432c.293 0 .568.115.775.322l2.966 2.967a.398.398 0 0 1-.282.681H67.32v4.95l8.947-.003a.693.693 0 0 1 .643.426.694.694 0 0 1 .055.272v2.574a.697.697 0 0 1-.523.675.558.558 0 0 1-.142.016l-8.98-.002v2.406l2.592 2.593 7.654-.005c.034 0 .085.002.142.017.308.08.523.357.523.674v2.574a.695.695 0 0 1-.698.698M50.758 11.66L48.141 9.05V4.134h4.907l2.622 2.617v4.91h-4.912zm9.666 9.653l-1.88-1.88-3.809-3.803h4.212a.7.7 0 0 0 .699-.698v-9.37c0-.294-.115-.569-.322-.776l-.082-.082-4.127-4.12-.098-.097a1.092 1.092 0 0 0-.777-.322h-9.476a.6.6 0 0 0-.599.599v20.638a.6.6 0 0 0 .6.598h2.777a.6.6 0 0 0 .6-.598V14.66l7.13 7.129a.695.695 0 0 0 .495.204h4.375a.398.398 0 0 0 .282-.68zM39.6 22H28.69a1.08 1.08 0 0 1-.771-.322l-4.275-4.305a1.095 1.095 0 0 1-.32-.777V.416c0-.145.07-.287.195-.36A.394.394 0 0 1 24 .116l2.94 2.958c.206.207.32.483.32.776l.006 11.562 2.608 2.616h6.378V.737c0-.33.267-.599.595-.599h2.754c.328 0 .594.268.594.599v20.664c0 .33-.266.599-.594.599M22.71 21.157l-3.071-3.06a.594.594 0 0 1-.175-.422V5.537c0-.29-.116-.568-.322-.772L14.845.485a1.092 1.092 0 0 0-.775-.32H.498A.497.497 0 0 0 0 .662v16.7c0 .292.114.566.321.772l1.169 1.163 2.226 2.218c.207.206.483.32.776.32l8.638-.004a.397.397 0 0 0 .392-.324.41.41 0 0 0-.123-.367L11.249 19a1.092 1.092 0 0 0-.776-.32l-4-.002-2.506-2.497V4.116h8.914l2.618 2.608v7.254l-1.927-1.919a.398.398 0 0 0-.68.3v3.028c0 .291.114.566.32.772l5.381 5.356c.207.206.483.32.776.32h3.04a.413.413 0 0 0 .348-.173.394.394 0 0 0-.047-.505"/>
  </g>
</svg>
